<?xml version="1.0" encoding="UTF-8" standalone="no"?>
<!-- Created with Inkscape (http://www.inkscape.org/) -->
<svg
   xmlns:svg="http://www.w3.org/2000/svg"
   xmlns="http://www.w3.org/2000/svg"
   version="1.0"
   width="640"
   height="640"
   id="svg2">
  <defs
     id="defs4" />
  <g
     transform="translate(20,-432.36218)"
     id="layer1">
    <path
       d="M 300,452.375 C 142.82306,452.375 13.785872,573.46393 1.0625,727.375 L 56.28125,727.375 C 68.820818,603.86725 173.20191,507.375 300,507.375 C 410.91358,507.37499 504.66651,581.21512 534.8125,682.375 L 503.3125,682.375 C 474.25662,598.02528 394.1767,537.375 300,537.375 C 189.77763,537.375 98.869907,620.46131 86.46875,727.375 L 141.9375,727.375 C 146.76339,696.67292 160.31992,668.85704 180,646.5625 L 180,858.1875 C 160.31992,835.89296 146.76339,808.07708 141.9375,777.375 L 86.46875,777.375 C 97.529379,872.73166 171.03354,949.12779 265,964.53125 L 265,994.875 C 154.45134,979.03226 67.645233,889.3039 56.28125,777.375 L 1.0625,777.375 C 13.785872,931.28607 142.82306,1052.375 300,1052.375 C 458.87645,1052.375 589.00523,928.65758 599.3125,772.375 L 544.1875,772.375 C 534.94215,886.62731 447.19622,978.79972 335,994.875 L 335,964.53125 C 430.60229,948.8575 505.03587,870.0492 514.0625,772.375 L 458.75,772.375 C 454.67021,805.04929 440.72942,834.66107 420,858.15625 L 420,646.59375 C 440.72942,670.08892 454.67021,699.70071 458.75,732.375 L 490,732.375 L 514.0625,732.375 L 544.1875,732.375 L 570,732.375 L 599.3125,732.375 C 589.00523,576.09242 458.87646,452.37499 300,452.375 z M 300,592.375 C 340.54953,592.375 377.57619,607.4831 405.78125,632.375 L 350,632.375 L 350,872.375 L 405.78125,872.375 C 377.57619,897.2669 340.54952,912.375 300,912.375 C 259.46219,912.375 222.42555,897.25702 194.21875,872.375 L 250,872.375 L 250,632.375 L 194.21875,632.375 C 222.42555,607.49298 259.46219,592.375 300,592.375 z M 265,632.375 L 265,872.375 L 335,872.375 L 335,632.375 L 265,632.375 z "
       style="opacity:1;fill:#000000;fill-opacity:1;fill-rule:nonzero;stroke:none;stroke-width:30;stroke-linecap:round;stroke-linejoin:round;stroke-miterlimit:4;stroke-dasharray:none;stroke-opacity:1"
       id="path3141" />
  </g>
</svg>
